<svg t="1633697439829" class="icon" viewBox="0 0 1024 1024" version="1.1" xmlns="http://www.w3.org/2000/svg" p-id="1995" width="200" height="200"><path d="M126.933333 539.562667l256.426667 256.426666a21.333333 21.333333 0 0 0 30.165333 0l15.104-15.061333a42.666667 42.666667 0 0 0 0-60.330667l-241.365333-241.365333a42.666667 42.666667 0 1 0-60.330667 60.330667z" fill="#fff" p-id="1996"></path><path d="M857.130667 242.133333L374.4 724.864a42.666667 42.666667 0 0 0 0 60.330667l15.061333 15.061333a21.333333 21.333333 0 0 0 30.208 0L917.461333 302.506667a42.666667 42.666667 0 0 0-60.330666-60.330667z" fill="#fff" p-id="1997"></path></svg>